<?xml version="1.0" encoding="UTF-8" standalone="no" ?>
<!DOCTYPE svg PUBLIC "-//W3C//DTD SVG 1.1//EN" "http://www.w3.org/Graphics/SVG/1.1/DTD/svg11.dtd">
<svg xmlns="http://www.w3.org/2000/svg" xmlns:xlink="http://www.w3.org/1999/xlink" version="1.1" width="397.39059999999995" height="345.2306" xml:space="preserve">
<desc>Created with Fabric.js 1.6.0-rc.1</desc>
<defs></defs>
<g style="stroke: none; stroke-width: 1; stroke-dasharray: none; stroke-linecap: butt; stroke-linejoin: miter; stroke-miterlimit: 10; fill: none; fill-rule: nonzero; opacity: 1;" transform="translate(62.15999999999997 10) scale(2.82 2.82)" >
  <circle cx="195.776" cy="109.756" r="57.166" style="stroke: none; stroke-width: 1; stroke-dasharray: none; stroke-linecap: butt; stroke-linejoin: miter; stroke-miterlimit: 10; fill: #000003; fill-rule: nonzero; opacity: 1;" transform="  matrix(1 0 0 1 -138.607 -52.586) "/>
  <circle cx="195.776" cy="109.756" r="44.416" style="stroke: none; stroke-width: 1; stroke-dasharray: none; stroke-linecap: butt; stroke-linejoin: miter; stroke-miterlimit: 10; fill: #f5f5f5; fill-rule: nonzero; opacity: 1;" transform="  matrix(1 0 0 1 -138.607 -52.586) "/>
  <path d="M 225.111 67.771 c 0.26 -0.364 0.708 -0.454 1.062 -0.202 c 0.354 0.253 0.41 0.688 0.141 1.063 c -0.259 0.364 -0.698 0.464 -1.072 0.196 c -0.344 -0.245 -0.391 -0.693 -0.131 -1.057 z m 3.89 2.998 c 0.294 -0.338 0.749 -0.386 1.077 -0.101 c 0.328 0.287 0.341 0.725 0.037 1.072 c -0.293 0.339 -0.74 0.395 -1.085 0.092 c -0.319 -0.277 -0.322 -0.727 -0.029 -1.063 z m 3.593 3.368 c 0.325 -0.307 0.781 -0.311 1.081 0.006 c 0.297 0.316 0.267 0.755 -0.067 1.071 c -0.325 0.306 -0.775 0.32 -1.09 -0.014 c -0.29 -0.309 -0.251 -0.756 0.076 -1.063 z m 3.237 3.69 c 0.354 -0.273 0.807 -0.233 1.074 0.111 c 0.268 0.344 0.193 0.775 -0.17 1.058 c -0.353 0.274 -0.801 0.245 -1.082 -0.12 c -0.259 -0.334 -0.176 -0.774 0.178 -1.049 z m 2.859 3.981 c 0.378 -0.237 0.828 -0.152 1.06 0.215 c 0.233 0.368 0.118 0.791 -0.272 1.037 c -0.377 0.236 -0.82 0.162 -1.065 -0.225 c -0.226 -0.358 -0.101 -0.788 0.277 -1.027 z m 2.471 4.262 c 0.401 -0.202 0.84 -0.074 1.035 0.315 c 0.196 0.388 0.039 0.801 -0.373 1.007 c -0.4 0.199 -0.834 0.082 -1.04 -0.329 c -0.188 -0.377 -0.021 -0.794 0.378 -0.993 z m 2.033 4.458 c 0.417 -0.16 0.841 0.012 0.998 0.418 c 0.155 0.405 -0.041 0.8 -0.469 0.964 c -0.419 0.16 -0.838 0.001 -1.002 -0.427 c -0.151 -0.395 0.054 -0.794 0.473 -0.955 z m 1.589 4.648 c 0.43 -0.12 0.835 0.091 0.951 0.512 c 0.116 0.418 -0.117 0.792 -0.561 0.915 c -0.43 0.116 -0.833 -0.082 -0.954 -0.526 c -0.113 -0.407 0.132 -0.784 0.564 -0.901 z m 1.125 4.781 c 0.441 -0.073 0.824 0.177 0.898 0.606 c 0.072 0.429 -0.196 0.776 -0.649 0.853 c -0.44 0.076 -0.821 -0.163 -0.899 -0.614 c -0.071 -0.417 0.208 -0.767 0.65 -0.845 z m 0.651 4.871 c 0.446 -0.031 0.804 0.252 0.835 0.688 c 0.031 0.434 -0.269 0.754 -0.729 0.787 c -0.447 0.033 -0.803 -0.241 -0.835 -0.701 c -0.029 -0.42 0.284 -0.742 0.729 -0.774 z m 0.181 4.914 c 0.446 0.011 0.774 0.331 0.763 0.765 c -0.011 0.435 -0.341 0.725 -0.801 0.713 c -0.446 -0.011 -0.775 -0.318 -0.765 -0.778 c 0.012 -0.421 0.354 -0.712 0.803 -0.7 z m -0.297 4.913 c 0.443 0.053 0.741 0.401 0.687 0.834 c -0.053 0.431 -0.409 0.689 -0.865 0.633 c -0.444 -0.054 -0.743 -0.391 -0.687 -0.847 c 0.052 -0.42 0.421 -0.675 0.865 -0.62 z m -0.773 4.855 c 0.438 0.097 0.697 0.475 0.602 0.899 c -0.094 0.423 -0.475 0.644 -0.923 0.544 c -0.437 -0.097 -0.7 -0.461 -0.6 -0.91 c 0.094 -0.412 0.485 -0.63 0.921 -0.533 z m -1.242 4.748 c 0.425 0.139 0.646 0.539 0.51 0.952 c -0.135 0.416 -0.536 0.596 -0.972 0.453 c -0.424 -0.14 -0.649 -0.528 -0.506 -0.967 c 0.131 -0.4 0.543 -0.579 0.968 -0.438 z m -1.702 4.609 c 0.409 0.181 0.59 0.602 0.414 0.999 c -0.175 0.398 -0.59 0.539 -1.012 0.355 c -0.409 -0.182 -0.596 -0.589 -0.41 -1.011 c 0.171 -0.385 0.598 -0.523 1.008 -0.343 z m -2.15 4.422 c 0.391 0.22 0.53 0.656 0.316 1.036 c -0.214 0.378 -0.642 0.479 -1.042 0.252 c -0.391 -0.219 -0.536 -0.646 -0.309 -1.044 c 0.207 -0.369 0.646 -0.464 1.035 -0.244 z m -2.563 4.183 c 0.364 0.256 0.46 0.704 0.211 1.06 c -0.25 0.356 -0.686 0.414 -1.061 0.151 c -0.367 -0.256 -0.47 -0.694 -0.206 -1.069 c 0.243 -0.346 0.689 -0.398 1.056 -0.142 z m -2.963 3.92 c 0.34 0.29 0.392 0.744 0.108 1.074 c -0.283 0.329 -0.723 0.346 -1.071 0.047 c -0.339 -0.292 -0.4 -0.737 -0.101 -1.085 c 0.275 -0.322 0.722 -0.328 1.064 -0.036 z m -3.324 3.605 c 0.309 0.324 0.318 0.781 0.005 1.082 c -0.315 0.302 -0.752 0.275 -1.072 -0.057 c -0.311 -0.321 -0.327 -0.771 0.005 -1.089 c 0.303 -0.292 0.752 -0.257 1.062 0.064 z m -3.674 3.286 c 0.276 0.349 0.242 0.805 -0.1 1.075 c -0.34 0.269 -0.776 0.202 -1.062 -0.159 c -0.277 -0.352 -0.251 -0.8 0.11 -1.086 c 0.333 -0.26 0.776 -0.183 1.052 0.17 z m -3.955 2.896 c 0.243 0.375 0.161 0.825 -0.204 1.06 c -0.367 0.234 -0.791 0.124 -1.04 -0.264 c -0.242 -0.375 -0.171 -0.819 0.214 -1.068 c 0.357 -0.228 0.788 -0.106 1.03 0.272 z m -56.217 -0.549 c -0.258 0.364 -0.706 0.459 -1.062 0.208 c -0.354 -0.251 -0.412 -0.687 -0.146 -1.06 c 0.258 -0.366 0.695 -0.469 1.07 -0.203 c 0.347 0.243 0.397 0.69 0.138 1.055 z m -3.906 -2.978 c -0.292 0.338 -0.746 0.389 -1.075 0.104 c -0.33 -0.284 -0.343 -0.725 -0.043 -1.072 c 0.292 -0.338 0.738 -0.397 1.085 -0.096 c 0.318 0.276 0.327 0.725 0.033 1.064 z m -3.594 -3.339 c -0.323 0.309 -0.781 0.315 -1.081 0.002 c -0.301 -0.314 -0.273 -0.755 0.061 -1.073 c 0.325 -0.309 0.771 -0.324 1.089 0.01 c 0.292 0.305 0.256 0.752 -0.069 1.061 z m -3.27 -3.689 c -0.351 0.277 -0.808 0.239 -1.076 -0.104 c -0.269 -0.344 -0.196 -0.776 0.166 -1.06 c 0.353 -0.276 0.8 -0.249 1.083 0.115 c 0.261 0.335 0.18 0.776 -0.173 1.049 z m -2.878 -3.966 c -0.377 0.24 -0.827 0.157 -1.061 -0.207 c -0.233 -0.368 -0.122 -0.793 0.267 -1.04 c 0.378 -0.241 0.822 -0.169 1.068 0.219 c 0.226 0.358 0.103 0.788 -0.274 1.028 z m -2.492 -4.246 c -0.397 0.202 -0.839 0.077 -1.034 -0.311 c -0.198 -0.389 -0.044 -0.8 0.366 -1.008 c 0.398 -0.202 0.833 -0.087 1.042 0.321 c 0.191 0.378 0.026 0.795 -0.374 0.998 z m -2.052 -4.449 c -0.417 0.163 -0.842 -0.005 -1 -0.412 c -0.158 -0.404 0.035 -0.8 0.465 -0.965 c 0.417 -0.163 0.837 -0.006 1.004 0.423 c 0.152 0.394 -0.052 0.793 -0.469 0.954 z m -1.617 -4.654 c -0.43 0.121 -0.837 -0.088 -0.954 -0.507 c -0.118 -0.419 0.114 -0.793 0.556 -0.917 c 0.433 -0.121 0.835 0.075 0.959 0.52 c 0.113 0.407 -0.13 0.783 -0.561 0.904 z m -1.146 -4.774 c -0.44 0.077 -0.826 -0.171 -0.9 -0.6 c -0.076 -0.427 0.191 -0.777 0.643 -0.857 c 0.441 -0.075 0.823 0.16 0.903 0.611 c 0.075 0.417 -0.206 0.769 -0.646 0.846 z m -0.676 -4.863 c -0.446 0.035 -0.804 -0.25 -0.837 -0.683 c -0.033 -0.435 0.267 -0.756 0.725 -0.792 c 0.445 -0.033 0.803 0.238 0.838 0.696 c 0.032 0.421 -0.279 0.745 -0.726 0.779 z m -0.201 -4.91 c -0.448 -0.008 -0.776 -0.326 -0.769 -0.76 c 0.009 -0.436 0.338 -0.727 0.795 -0.72 c 0.448 0.009 0.779 0.315 0.771 0.775 c -0.01 0.422 -0.35 0.714 -0.797 0.705 z m 0.27 -4.9 c -0.443 -0.051 -0.741 -0.398 -0.689 -0.831 c 0.05 -0.432 0.406 -0.691 0.861 -0.636 c 0.446 0.051 0.744 0.386 0.69 0.843 c -0.048 0.42 -0.416 0.677 -0.862 0.624 z m 0.748 -4.863 c -0.437 -0.094 -0.699 -0.469 -0.605 -0.893 c 0.093 -0.426 0.471 -0.648 0.92 -0.551 c 0.438 0.095 0.702 0.458 0.603 0.907 c -0.089 0.412 -0.481 0.633 -0.918 0.537 z m 1.219 -4.756 c -0.425 -0.138 -0.649 -0.536 -0.515 -0.95 c 0.132 -0.412 0.531 -0.598 0.968 -0.456 c 0.427 0.137 0.655 0.524 0.513 0.96 c -0.13 0.403 -0.542 0.583 -0.966 0.446 z m 1.681 -4.622 c -0.411 -0.177 -0.593 -0.595 -0.421 -0.995 c 0.172 -0.398 0.588 -0.542 1.012 -0.359 c 0.409 0.179 0.599 0.586 0.415 1.007 c -0.171 0.387 -0.596 0.526 -1.006 0.347 z m 2.126 -4.43 c -0.391 -0.22 -0.531 -0.656 -0.319 -1.035 c 0.212 -0.378 0.64 -0.483 1.042 -0.259 c 0.39 0.218 0.538 0.644 0.314 1.045 c -0.208 0.369 -0.645 0.465 -1.037 0.249 z m 2.547 -4.2 c -0.367 -0.255 -0.466 -0.701 -0.217 -1.059 c 0.249 -0.358 0.684 -0.419 1.061 -0.156 c 0.368 0.255 0.473 0.692 0.211 1.069 c -0.241 0.348 -0.688 0.402 -1.055 0.146 z m 2.943 -3.933 c -0.342 -0.289 -0.395 -0.744 -0.115 -1.075 c 0.282 -0.333 0.721 -0.35 1.072 -0.053 c 0.343 0.29 0.405 0.734 0.107 1.084 c -0.274 0.324 -0.724 0.335 -1.064 0.044 z m 3.307 -3.623 c -0.313 -0.32 -0.323 -0.779 -0.011 -1.08 c 0.312 -0.304 0.751 -0.279 1.072 0.049 c 0.311 0.323 0.33 0.771 0.001 1.091 c -0.304 0.295 -0.752 0.261 -1.062 -0.06 z m 3.655 -3.301 c -0.28 -0.35 -0.244 -0.806 0.095 -1.078 c 0.341 -0.271 0.776 -0.204 1.063 0.157 c 0.278 0.349 0.254 0.798 -0.105 1.082 c -0.33 0.266 -0.774 0.188 -1.053 -0.161 z" style="stroke: none; stroke-width: 1; stroke-dasharray: none; stroke-linecap: butt; stroke-linejoin: miter; stroke-miterlimit: 10; fill: #e2d5b6; fill-rule: nonzero; opacity: 1;" transform=" matrix(1 0 0 1 -138.607 -52.586) " stroke-linecap="round" />
  <path d="M 161.204 119.657 a 3.114 3.114 0 0 1 -4.011 -1.815 l -0.06 -0.158 a 3.115 3.115 0 0 1 1.816 -4.011 l 41.256 -14.104 c 1.606 -0.605 2.929 -1.052 3.535 0.555 l 0.06 0.158 c 0.605 1.61 -0.682 2.144 -2.291 2.75 l -40.305 16.625 z" style="stroke: none; stroke-width: 1; stroke-dasharray: none; stroke-linecap: butt; stroke-linejoin: miter; stroke-miterlimit: 10; fill: #000003; fill-rule: nonzero; opacity: 1;" transform=" matrix(1 0 0 1 -138.607 -52.586) " stroke-linecap="round" />
  <path d="M 209.56 83.106 l 9.612 25.51 l -14.801 5.576 l -9.612 -25.509 z" style="stroke: none; stroke-width: 1; stroke-dasharray: none; stroke-linecap: butt; stroke-linejoin: miter; stroke-miterlimit: 10; fill: #990c0c; fill-rule: nonzero; opacity: 1;" transform=" matrix(1 0 0 1 -138.607 -52.586) " stroke-linecap="round" />
  <path d="M 205.063 117.157 a 1.964 1.964 0 0 1 -2.53 -1.146 l -0.039 -0.104 a 1.963 1.963 0 0 1 1.146 -2.53 l 16.164 -6.091 a 1.966 1.966 0 0 1 2.53 1.146 l 0.04 0.105 a 1.964 1.964 0 0 1 -1.146 2.529 l -16.165 6.091 z m -9.966 -26.452 a 1.965 1.965 0 0 1 -2.529 -1.146 l -0.041 -0.105 a 1.962 1.962 0 0 1 1.145 -2.528 l 16.166 -6.089 a 1.962 1.962 0 0 1 2.529 1.145 l 0.04 0.102 a 1.966 1.966 0 0 1 -1.145 2.532 l -16.165 6.089 z" style="stroke: none; stroke-width: 1; stroke-dasharray: none; stroke-linecap: butt; stroke-linejoin: miter; stroke-miterlimit: 10; fill: #000003; fill-rule: nonzero; opacity: 1;" transform=" matrix(1 0 0 1 -138.607 -52.586) " stroke-linecap="round" />
  <path d="M 229.627 128.255 a 3.319 3.319 0 0 1 -3.318 3.318 h -27.271 a 3.318 3.318 0 0 1 -3.317 -3.318 v -0.9 a 3.318 3.318 0 0 1 3.317 -3.317 h 27.271 a 3.318 3.318 0 0 1 3.318 3.317 v 0.9 z" style="stroke: none; stroke-width: 1; stroke-dasharray: none; stroke-linecap: butt; stroke-linejoin: miter; stroke-miterlimit: 10; fill: #990c0c; fill-rule: nonzero; opacity: 1;" transform=" matrix(1 0 0 1 -138.607 -52.586) " stroke-linecap="round" />
  <path d="M 195.671 64.912 l -1.406 -2.765 l -3.242 0.047 l 1.887 -2.774 l -1.897 -2.608 l 3.248 0.125 l 1.329 -3.095 l 1.481 3.021 h 3.183 l -1.735 2.801 l 2.013 2.529 l -3.512 -0.246 l -1.349 2.965 z m -1.289 -2.958 l 1.279 2.517 l 1.241 -2.703 l 3.201 0.239 l -1.821 -2.273 l 1.623 -2.568 h -2.958 l -1.35 -2.808 l -1.214 2.767 l -2.984 -0.111 l 1.745 2.4 l -1.756 2.583 l 2.994 -0.043 z" style="stroke: none; stroke-width: 1; stroke-dasharray: none; stroke-linecap: butt; stroke-linejoin: miter; stroke-miterlimit: 10; fill: #990c0c; fill-rule: nonzero; opacity: 1;" transform=" matrix(1 0 0 1 -138.607 -52.586) " stroke-linecap="round" />
  <path d="M 197.01 57.022 l -1.248 2.492 l 4.317 -2.492 z m 3.309 5.097 l -1.92 -2.374 l -2.637 -0.231 z m -4.652 2.572 l 1.294 -2.823 l -1.199 -2.354 z m -4.461 -2.594 l 4.556 -2.583 l -1.437 2.536 z m 0 -5.18 l 1.823 2.501 l 2.733 0.096 z m 4.389 -2.77 l -1.27 2.89 l 1.437 2.477 z" style="stroke: none; stroke-width: 1; stroke-dasharray: none; stroke-linecap: butt; stroke-linejoin: miter; stroke-miterlimit: 10; fill: #990c0c; fill-rule: nonzero; opacity: 1;" transform=" matrix(1 0 0 1 -138.607 -52.586) " stroke-linecap="round" />
  <path d="M 213.681 67.631 l -1.407 -2.763 l -3.24 0.048 l 1.886 -2.774 l -1.896 -2.608 l 3.247 0.124 l 1.33 -3.095 l 1.478 3.021 h 3.186 l -1.734 2.801 l 2.013 2.531 l -3.512 -0.246 l -1.351 2.961 z m -1.29 -2.956 l 1.279 2.516 l 1.24 -2.704 l 3.204 0.239 l -1.823 -2.271 l 1.623 -2.566 h -2.956 l -1.352 -2.809 l -1.212 2.765 l -2.985 -0.109 l 1.745 2.401 l -1.756 2.582 l 2.993 -0.044 z" style="stroke: none; stroke-width: 1; stroke-dasharray: none; stroke-linecap: butt; stroke-linejoin: miter; stroke-miterlimit: 10; fill: #990c0c; fill-rule: nonzero; opacity: 1;" transform=" matrix(1 0 0 1 -138.607 -52.586) " stroke-linecap="round" />
  <path d="M 215.018 59.745 l -1.247 2.491 l 4.317 -2.491 z m 3.309 5.095 l -1.919 -2.374 l -2.637 -0.23 z m -4.651 2.572 l 1.293 -2.826 l -1.198 -2.35 z" style="stroke: none; stroke-width: 1; stroke-dasharray: none; stroke-linecap: butt; stroke-linejoin: miter; stroke-miterlimit: 10; fill: #990c0c; fill-rule: nonzero; opacity: 1;" transform=" matrix(1 0 0 1 -138.607 -52.586) " stroke-linecap="round" />
  <path d="M 209.215 64.818 l 4.556 -2.582 l -1.439 2.535 z m 0 -5.181 l 1.822 2.503 l 2.734 0.096 z m 4.388 -2.771 l -1.271 2.89 l 1.439 2.48 z" style="stroke: none; stroke-width: 1; stroke-dasharray: none; stroke-linecap: butt; stroke-linejoin: miter; stroke-miterlimit: 10; fill: #990c0c; fill-rule: nonzero; opacity: 1;" transform=" matrix(1 0 0 1 -138.607 -52.586) " stroke-linecap="round" />
  <path d="M 176.959 67.631 l -1.404 -2.763 l -3.242 0.048 l 1.887 -2.774 l -1.897 -2.608 l 3.248 0.124 l 1.329 -3.095 l 1.48 3.021 h 3.184 l -1.736 2.801 l 2.013 2.531 l -3.511 -0.246 l -1.351 2.961 z m -1.288 -2.956 l 1.279 2.516 l 1.24 -2.704 l 3.202 0.239 l -1.822 -2.271 l 1.623 -2.566 h -2.956 l -1.351 -2.809 l -1.213 2.765 l -2.985 -0.109 l 1.747 2.401 l -1.757 2.582 l 2.993 -0.044 z" style="stroke: none; stroke-width: 1; stroke-dasharray: none; stroke-linecap: butt; stroke-linejoin: miter; stroke-miterlimit: 10; fill: #990c0c; fill-rule: nonzero; opacity: 1;" transform=" matrix(1 0 0 1 -138.607 -52.586) " stroke-linecap="round" />
  <path d="M 178.298 59.745 l -1.247 2.491 l 4.318 -2.491 z m 3.31 5.095 l -1.919 -2.374 l -2.638 -0.23 z m -4.652 2.572 l 1.294 -2.826 l -1.199 -2.35 z" style="stroke: none; stroke-width: 1; stroke-dasharray: none; stroke-linecap: butt; stroke-linejoin: miter; stroke-miterlimit: 10; fill: #990c0c; fill-rule: nonzero; opacity: 1;" transform=" matrix(1 0 0 1 -138.607 -52.586) " stroke-linecap="round" />
  <path d="M 172.495 64.818 l 4.556 -2.582 l -1.439 2.535 z m 0 -5.181 l 1.823 2.503 l 2.733 0.096 z m 4.388 -2.771 l -1.271 2.89 l 1.439 2.48 z" style="stroke: none; stroke-width: 1; stroke-dasharray: none; stroke-linecap: butt; stroke-linejoin: miter; stroke-miterlimit: 10; fill: #990c0c; fill-rule: nonzero; opacity: 1;" transform=" matrix(1 0 0 1 -138.607 -52.586) " stroke-linecap="round" />
  <path d="M 195.173 155.022 l 1.406 2.765 l 3.24 -0.048 l -1.887 2.774 l 1.898 2.608 l -3.249 -0.125 l -1.329 3.096 l -1.479 -3.022 h -3.184 l 1.736 -2.802 l -2.015 -2.529 l 3.512 0.245 l 1.351 -2.962 z m 1.288 2.959 l -1.279 -2.517 l -1.241 2.704 l -3.203 -0.241 l 1.823 2.273 l -1.623 2.566 h 2.955 l 1.352 2.809 l 1.213 -2.766 l 2.983 0.109 l -1.745 -2.398 l 1.756 -2.583 l -2.991 0.044 z" style="stroke: none; stroke-width: 1; stroke-dasharray: none; stroke-linecap: butt; stroke-linejoin: miter; stroke-miterlimit: 10; fill: #990c0c; fill-rule: nonzero; opacity: 1;" transform=" matrix(1 0 0 1 -138.607 -52.586) " stroke-linecap="round" />
  <path d="M 193.834 162.91 l 1.247 -2.491 l -4.317 2.491 z m -3.309 -5.095 l 1.917 2.373 l 2.639 0.231 z" style="stroke: none; stroke-width: 1; stroke-dasharray: none; stroke-linecap: butt; stroke-linejoin: miter; stroke-miterlimit: 10; fill: #990c0c; fill-rule: nonzero; opacity: 1;" transform=" matrix(1 0 0 1 -138.607 -52.586) " stroke-linecap="round" />
  <path d="M 195.177 155.243 l -1.295 2.824 l 1.199 2.352 z" style="stroke: none; stroke-width: 1; stroke-dasharray: none; stroke-linecap: butt; stroke-linejoin: miter; stroke-miterlimit: 10; fill: #990c0c; fill-rule: nonzero; opacity: 1;" transform=" matrix(1 0 0 1 -138.607 -52.586) " stroke-linecap="round" />
  <path d="M 199.637 157.838 l -4.556 2.581 l 1.439 -2.536 z m 0 5.181 l -1.823 -2.504 l -2.733 -0.096 z" style="stroke: none; stroke-width: 1; stroke-dasharray: none; stroke-linecap: butt; stroke-linejoin: miter; stroke-miterlimit: 10; fill: #990c0c; fill-rule: nonzero; opacity: 1;" transform=" matrix(1 0 0 1 -138.607 -52.586) " stroke-linecap="round" />
  <path d="M 195.249 165.789 l 1.271 -2.888 l -1.439 -2.482 z" style="stroke: none; stroke-width: 1; stroke-dasharray: none; stroke-linecap: butt; stroke-linejoin: miter; stroke-miterlimit: 10; fill: #990c0c; fill-rule: nonzero; opacity: 1;" transform=" matrix(1 0 0 1 -138.607 -52.586) " stroke-linecap="round" />
  <path d="M 177.164 151.682 l 1.407 2.764 l 3.241 -0.049 l -1.889 2.775 l 1.897 2.607 l -3.247 -0.125 l -1.33 3.095 l -1.479 -3.02 h -3.184 l 1.735 -2.804 l -2.014 -2.529 l 3.512 0.244 l 1.351 -2.958 z m 1.289 2.957 l -1.28 -2.517 l -1.24 2.704 l -3.202 -0.24 l 1.823 2.274 l -1.624 2.566 h 2.957 l 1.352 2.808 l 1.212 -2.767 l 2.984 0.111 l -1.745 -2.4 l 1.756 -2.582 l -2.993 0.043 z" style="stroke: none; stroke-width: 1; stroke-dasharray: none; stroke-linecap: butt; stroke-linejoin: miter; stroke-miterlimit: 10; fill: #990c0c; fill-rule: nonzero; opacity: 1;" transform=" matrix(1 0 0 1 -138.607 -52.586) " stroke-linecap="round" />
  <path d="M 175.825 159.568 l 1.248 -2.49 l -4.317 2.49 z m -3.309 -5.095 l 1.92 2.373 l 2.637 0.232 z m 4.652 -2.57 l -1.294 2.822 l 1.199 2.353 z" style="stroke: none; stroke-width: 1; stroke-dasharray: none; stroke-linecap: butt; stroke-linejoin: miter; stroke-miterlimit: 10; fill: #990c0c; fill-rule: nonzero; opacity: 1;" transform=" matrix(1 0 0 1 -138.607 -52.586) " stroke-linecap="round" />
  <path d="M 181.629 154.496 l -4.556 2.582 l 1.438 -2.536 z" style="stroke: none; stroke-width: 1; stroke-dasharray: none; stroke-linecap: butt; stroke-linejoin: miter; stroke-miterlimit: 10; fill: #990c0c; fill-rule: nonzero; opacity: 1;" transform=" matrix(1 0 0 1 -138.607 -52.586) " stroke-linecap="round" />
  <path d="M 181.629 159.676 l -1.824 -2.501 l -2.732 -0.097 z m -4.389 2.771 l 1.271 -2.89 l -1.438 -2.479 z" style="stroke: none; stroke-width: 1; stroke-dasharray: none; stroke-linecap: butt; stroke-linejoin: miter; stroke-miterlimit: 10; fill: #990c0c; fill-rule: nonzero; opacity: 1;" transform=" matrix(1 0 0 1 -138.607 -52.586) " stroke-linecap="round" />
  <path d="M 213.883 151.682 l 1.407 2.764 l 3.242 -0.049 l -1.889 2.775 l 1.898 2.607 l -3.248 -0.125 l -1.329 3.095 l -1.479 -3.02 H 209.3 l 1.737 -2.804 l -2.015 -2.529 l 3.511 0.244 l 1.35 -2.958 z m 1.29 2.957 l -1.279 -2.517 l -1.241 2.704 l -3.203 -0.24 l 1.823 2.274 l -1.622 2.566 h 2.956 l 1.352 2.808 l 1.21 -2.767 l 2.986 0.111 l -1.746 -2.4 l 1.756 -2.582 l -2.992 0.043 z" style="stroke: none; stroke-width: 1; stroke-dasharray: none; stroke-linecap: butt; stroke-linejoin: miter; stroke-miterlimit: 10; fill: #990c0c; fill-rule: nonzero; opacity: 1;" transform=" matrix(1 0 0 1 -138.607 -52.586) " stroke-linecap="round" />
  <path d="M 212.545 159.568 l 1.247 -2.49 l -4.316 2.49 z m -3.309 -5.095 l 1.918 2.373 l 2.638 0.232 z m 4.651 -2.57 l -1.293 2.822 l 1.198 2.353 z m 4.461 2.593 l -4.556 2.582 l 1.439 -2.536 z" style="stroke: none; stroke-width: 1; stroke-dasharray: none; stroke-linecap: butt; stroke-linejoin: miter; stroke-miterlimit: 10; fill: #990c0c; fill-rule: nonzero; opacity: 1;" transform=" matrix(1 0 0 1 -138.607 -52.586) " stroke-linecap="round" />
  <path d="M 218.348 159.676 l -1.823 -2.501 l -2.733 -0.097 z m -4.388 2.771 l 1.271 -2.89 l -1.439 -2.479 z" style="stroke: none; stroke-width: 1; stroke-dasharray: none; stroke-linecap: butt; stroke-linejoin: miter; stroke-miterlimit: 10; fill: #990c0c; fill-rule: nonzero; opacity: 1;" transform=" matrix(1 0 0 1 -138.607 -52.586) " stroke-linecap="round" />
</g>
<g style="stroke: none; stroke-width: 1; stroke-dasharray: none; stroke-linecap: butt; stroke-linejoin: miter; stroke-miterlimit: 10; fill: none; fill-rule: nonzero; opacity: 1;" transform="translate(10 156) rotate(315.2) scale(0.29 0.29)" >
  <path d="M 223.368 405.132 c 0 0 6.026 -31.637 32.516 -43.062 c 19.589 -8.448 50.325 -25.896 67.658 -43.807 c 6.136 -6.343 5.98 -16.471 -0.37 -22.595 c -5.443 -5.267 -13.659 -5.877 -19.76 -1.939 c 0 0 -14.279 9.479 -39.552 -3.043 c -18.634 -9.233 -4.096 -29.587 -4.096 -29.587 s -28.531 -28.979 -28.715 -28.806 c -18.128 17.024 -17.561 -5.098 -17.561 -5.098 c -0.53 -24.749 18.339 -46.214 18.339 -46.214 c 8.497 -8.134 8.792 -21.618 0.66 -30.117 c -8.16 -8.533 -21.622 -8.801 -30.123 -0.667 c -2.494 2.386 -32.657 31.635 -58.673 73.376 l 0 0 c 0 0 -23.268 37.183 -55.772 41.136 c -0.045 0.005 -23.094 3.866 -39.883 16.413 C 1.95 315.563 -6.268 384.226 31.233 436.61 c 37.502 52.384 105.825 67.7 152.606 34.21 C 205.738 455.142 219.266 431.167 223.368 405.132 z" style="stroke: none; stroke-width: 1; stroke-dasharray: none; stroke-linecap: butt; stroke-linejoin: miter; stroke-miterlimit: 10; fill: #d10025; fill-rule: nonzero; opacity: 1;" transform=" matrix(1 0 0 1 0 0) " stroke-linecap="round" />
  <path d="M 289.132 314.172 c -1.703 -3.509 -6.761 -3.908 -10.546 -3.664 c -1.417 0.251 -2.913 0.463 -4.485 0.611 c -0.01 0.002 -0.023 0.005 -0.023 0.005 l 0.004 -0.003 c -10.675 1.01 -24.558 -0.827 -37.088 -12.401 c -0.001 -0.001 -0.002 -0.002 -0.003 -0.003 c -9.136 -9.136 -6.544 -19.201 -2.993 -27.875 c -4.473 -4.531 -8.886 -9.756 -13.604 -14.48 c -10.58 6.038 -20.57 -1.868 -23.308 -4.604 c 0 0 -0.001 -0.001 -0.002 -0.002 c -3.892 -3.892 -5.152 -9.389 -5.537 -13.214 c -0.854 -4.719 -2.74 -8.195 -2.74 -8.195 s -15.838 -27.23 -27.588 16.91 c 0 0 -8.214 49.092 -47.073 70.388 c 0.088 0.088 -60.778 24.648 14.683 100.82 c 0 0 16.294 19.566 17.791 40.429 c 0 0 -0.405 8.748 6.349 6.475 c 5.09 -2.193 9.989 -4.923 14.612 -8.232 c 17.833 -12.767 29.529 -31.733 33.153 -54.73 c 0 0 7.209 -36.339 36.808 -49.104 c 13.593 -5.862 31.442 -15.675 45.896 -26.432 C 292.856 319.083 289.126 314.32 289.132 314.172 z" style="stroke: none; stroke-width: 1; stroke-dasharray: none; stroke-linecap: butt; stroke-linejoin: miter; stroke-miterlimit: 10; fill: #000000; fill-rule: nonzero; opacity: 1;" transform=" matrix(1 0 0 1 0 0) " stroke-linecap="round" />
  <path d="M 45.485 448.08 C 7.984 395.696 16.202 327.033 62.286 292.592 c 16.789 -12.547 39.839 -16.408 39.883 -16.413 c 32.504 -3.953 55.685 -40.996 55.769 -41.131 c 0.001 -0.001 0.004 -0.006 0.004 -0.006 l 0 0 c 26.016 -41.739 56.179 -70.99 58.673 -73.376 c 5.425 -5.19 12.865 -6.943 19.662 -5.328 c -0.947 -1.962 -2.202 -3.817 -3.79 -5.476 c -8.16 -8.533 -21.622 -8.801 -30.123 -0.666 c -2.494 2.386 -32.657 31.635 -58.673 73.376 l 0 0 c 0 0 -23.268 37.183 -55.772 41.136 c -0.045 0.005 -23.094 3.866 -39.883 16.413 C 1.95 315.563 -6.268 384.226 31.233 436.61 c 8.947 12.499 19.652 22.881 31.398 30.999 C 56.421 461.824 50.658 455.307 45.485 448.08 z" style="stroke: none; stroke-width: 1; stroke-dasharray: none; stroke-linecap: butt; stroke-linejoin: miter; stroke-miterlimit: 10; fill: #A5001E; fill-rule: nonzero; opacity: 1;" transform=" matrix(1 0 0 1 0 0) " stroke-linecap="round" />
  <circle cx="168.907" cy="410.917" r="13.157" style="stroke: none; stroke-width: 1; stroke-dasharray: none; stroke-linecap: butt; stroke-linejoin: miter; stroke-miterlimit: 10; fill: #57565C; fill-rule: nonzero; opacity: 1;" transform="  matrix(1 0 0 1 0 0) "/>
  <circle cx="168.91" cy="442.32" r="7.49" style="stroke: none; stroke-width: 1; stroke-dasharray: none; stroke-linecap: butt; stroke-linejoin: miter; stroke-miterlimit: 10; fill: #57565C; fill-rule: nonzero; opacity: 1;" transform="  matrix(1 0 0 1 0 0) "/>
  <path d="M 124.453 327.766 c 38.859 -21.296 47.073 -70.388 47.073 -70.388 c 5.877 -22.08 12.778 -26.302 18.208 -25.006 c -0.52 -1.271 -0.926 -2.025 -0.926 -2.025 s -15.838 -27.231 -27.588 16.91 c 0 0 -8.214 49.092 -47.073 70.388 c 0.088 0.088 -60.778 24.649 14.683 100.82 c 0 0 16.294 19.566 17.79 40.429 c 0 0 -0.405 8.748 6.349 6.475 c 1.106 -0.477 2.202 -0.984 3.289 -1.512 c -3.429 -18.817 -17.122 -35.271 -17.122 -35.271 C 63.675 352.413 124.541 327.854 124.453 327.766 z" style="stroke: none; stroke-width: 1; stroke-dasharray: none; stroke-linecap: butt; stroke-linejoin: miter; stroke-miterlimit: 10; fill: #D8D7DA; fill-rule: nonzero; opacity: 1;" transform=" matrix(1 0 0 1 0 0) " stroke-linecap="round" />
  <path d="M 112.664 421.228 l -41.992 -41.992 c -3.919 -3.919 -3.919 -10.333 0 -14.251 l 3.325 -3.325 c 3.919 -3.919 10.333 -3.919 14.251 0 l 41.992 41.992 c 3.919 3.919 3.919 10.333 0 14.251 l -3.325 3.325 C 122.997 425.147 116.583 425.147 112.664 421.228 z" style="stroke: none; stroke-width: 1; stroke-dasharray: none; stroke-linecap: butt; stroke-linejoin: miter; stroke-miterlimit: 10; fill: #57565C; fill-rule: nonzero; opacity: 1;" transform=" matrix(1 0 0 1 0 0) " stroke-linecap="round" />
  <path d="M 80.793 375.647 l 3.325 -3.325 c 3.92 -3.919 10.333 -3.919 14.251 0 l -10.121 -10.664 c -3.919 -3.919 -10.333 -3.919 -14.251 0 l -3.325 3.325 c -3.919 3.919 -3.919 10.333 0 14.253 l 8.474 8.473 C 76.995 383.872 77.539 378.902 80.793 375.647 z" style="stroke: none; stroke-width: 1; stroke-dasharray: none; stroke-linecap: butt; stroke-linejoin: miter; stroke-miterlimit: 10; fill: #2D2D30; fill-rule: nonzero; opacity: 1;" transform=" matrix(1 0 0 1 0 0) " stroke-linecap="round" />
  <path d="M 149.07 386.262 c -1.942 0 -3.885 -0.741 -5.368 -2.224 l -35.786 -35.786 c -2.965 -2.964 -2.965 -7.77 -0.001 -10.734 c 2.965 -2.964 7.771 -2.964 10.735 0 l 35.786 35.786 c 2.965 2.964 2.965 7.77 0.001 10.734 C 152.955 385.521 151.012 386.262 149.07 386.262 z" style="stroke: none; stroke-width: 1; stroke-dasharray: none; stroke-linecap: butt; stroke-linejoin: miter; stroke-miterlimit: 10; fill: #ACABB1; fill-rule: nonzero; opacity: 1;" transform=" matrix(1 0 0 1 0 0) " stroke-linecap="round" />
  <path d="M 174.287 359.401 c -1.943 0 -3.885 -0.741 -5.368 -2.224 l -34.175 -34.175 c -2.964 -2.964 -2.964 -7.771 0 -10.735 c 2.966 -2.964 7.772 -2.964 10.735 0 l 34.175 34.175 c 2.964 2.964 2.964 7.771 0 10.734 C 178.173 358.66 176.23 359.401 174.287 359.401 z" style="stroke: none; stroke-width: 1; stroke-dasharray: none; stroke-linecap: butt; stroke-linejoin: miter; stroke-miterlimit: 10; fill: #ACABB1; fill-rule: nonzero; opacity: 1;" transform=" matrix(1 0 0 1 0 0) " stroke-linecap="round" />
  <path d="M 197.634 329.756 c -1.942 0 -3.885 -0.741 -5.368 -2.224 l -30.249 -30.248 c -2.964 -2.964 -2.964 -7.771 0 -10.734 c 2.965 -2.964 7.771 -2.964 10.735 0 l 30.249 30.248 c 2.964 2.964 2.964 7.771 0 10.735 C 201.518 329.014 199.576 329.756 197.634 329.756 z" style="stroke: none; stroke-width: 1; stroke-dasharray: none; stroke-linecap: butt; stroke-linejoin: miter; stroke-miterlimit: 10; fill: #ACABB1; fill-rule: nonzero; opacity: 1;" transform=" matrix(1 0 0 1 0 0) " stroke-linecap="round" />
  <path d="M 386.805 126.19 l -20.715 -20.715 L 193.05 267.976 c -2.918 2.918 -1.331 5.939 0.885 8.155 l 21.979 21.979 c 2.221 2.221 5.517 3.531 8.174 0.874 L 386.805 126.19 z" style="stroke: none; stroke-width: 1; stroke-dasharray: none; stroke-linecap: butt; stroke-linejoin: miter; stroke-miterlimit: 10; fill: #57565C; fill-rule: nonzero; opacity: 1;" transform=" matrix(1 0 0 1 0 0) " stroke-linecap="round" />
  <path d="M 202.502 278.403 l 173.04 -162.501 l -9.453 -10.426 l -173.04 162.501 c -2.918 2.918 -1.332 5.939 0.885 8.155 l 7.294 7.294 C 200.636 281.836 200.802 280.102 202.502 278.403 z" style="stroke: none; stroke-width: 1; stroke-dasharray: none; stroke-linecap: butt; stroke-linejoin: miter; stroke-miterlimit: 10; fill: #2D2D30; fill-rule: nonzero; opacity: 1;" transform=" matrix(1 0 0 1 0 0) " stroke-linecap="round" />
  <path d="M 208.079 254.09 c -0.043 -0.043 -0.093 -0.074 -0.138 -0.112 l -3.604 3.384 c 0.067 0.088 0.131 0.178 0.212 0.259 l 29.833 29.833 c 0.096 0.096 0.203 0.176 0.311 0.254 l 3.379 -3.589 c -0.054 -0.065 -0.099 -0.135 -0.16 -0.195 L 208.079 254.09 z" style="stroke: none; stroke-width: 1; stroke-dasharray: none; stroke-linecap: butt; stroke-linejoin: miter; stroke-miterlimit: 10; fill: #FFDAAA; fill-rule: nonzero; opacity: 1;" transform=" matrix(1 0 0 1 0 0) " stroke-linecap="round" />
  <polygon points="220.4,242.28 249.79,271.68 253.21,268.04 224.03,238.86 " style="stroke: none; stroke-width: 1; stroke-dasharray: none; stroke-linecap: butt; stroke-linejoin: miter; stroke-miterlimit: 10; fill: #FFDAAA; fill-rule: nonzero; opacity: 1;" transform="  matrix(1 0 0 1 0 0) "/>
  <polygon points="236.48,227.18 264.91,255.61 268.34,251.98 240.12,223.76 " style="stroke: none; stroke-width: 1; stroke-dasharray: none; stroke-linecap: butt; stroke-linejoin: miter; stroke-miterlimit: 10; fill: #FFDAAA; fill-rule: nonzero; opacity: 1;" transform="  matrix(1 0 0 1 0 0) "/>
  <polygon points="252.56,212.08 280.04,239.55 283.46,235.92 256.2,208.66 " style="stroke: none; stroke-width: 1; stroke-dasharray: none; stroke-linecap: butt; stroke-linejoin: miter; stroke-miterlimit: 10; fill: #FFDAAA; fill-rule: nonzero; opacity: 1;" transform="  matrix(1 0 0 1 0 0) "/>
  <polygon points="268.64,196.97 295.16,223.49 298.58,219.86 272.28,193.55 " style="stroke: none; stroke-width: 1; stroke-dasharray: none; stroke-linecap: butt; stroke-linejoin: miter; stroke-miterlimit: 10; fill: #FFDAAA; fill-rule: nonzero; opacity: 1;" transform="  matrix(1 0 0 1 0 0) "/>
  <polygon points="284.72,181.87 310.29,207.43 313.71,203.79 288.37,178.45 " style="stroke: none; stroke-width: 1; stroke-dasharray: none; stroke-linecap: butt; stroke-linejoin: miter; stroke-miterlimit: 10; fill: #FFDAAA; fill-rule: nonzero; opacity: 1;" transform="  matrix(1 0 0 1 0 0) "/>
  <polygon points="300.81,166.77 325.41,191.37 328.83,187.73 304.45,163.35 " style="stroke: none; stroke-width: 1; stroke-dasharray: none; stroke-linecap: butt; stroke-linejoin: miter; stroke-miterlimit: 10; fill: #FFDAAA; fill-rule: nonzero; opacity: 1;" transform="  matrix(1 0 0 1 0 0) "/>
  <polygon points="316.89,151.66 340.53,175.31 343.96,171.67 320.53,148.25 " style="stroke: none; stroke-width: 1; stroke-dasharray: none; stroke-linecap: butt; stroke-linejoin: miter; stroke-miterlimit: 10; fill: #FFDAAA; fill-rule: nonzero; opacity: 1;" transform="  matrix(1 0 0 1 0 0) "/>
  <polygon points="359.08,155.61 336.61,133.14 332.97,136.56 355.66,159.25 " style="stroke: none; stroke-width: 1; stroke-dasharray: none; stroke-linecap: butt; stroke-linejoin: miter; stroke-miterlimit: 10; fill: #FFDAAA; fill-rule: nonzero; opacity: 1;" transform="  matrix(1 0 0 1 0 0) "/>
  <polygon points="374.21,139.55 352.7,118.04 349.05,121.46 370.78,143.19 " style="stroke: none; stroke-width: 1; stroke-dasharray: none; stroke-linecap: butt; stroke-linejoin: miter; stroke-miterlimit: 10; fill: #FFDAAA; fill-rule: nonzero; opacity: 1;" transform="  matrix(1 0 0 1 0 0) "/>
  <path d="M 207.94 253.978 l -3.604 3.384 c 0.068 0.088 0.131 0.178 0.212 0.259 l 9.726 9.726 l 3.642 -3.42 l -9.838 -9.838 C 208.036 254.048 207.985 254.016 207.94 253.978 z" style="stroke: none; stroke-width: 1; stroke-dasharray: none; stroke-linecap: butt; stroke-linejoin: miter; stroke-miterlimit: 10; fill: #FFB655; fill-rule: nonzero; opacity: 1;" transform=" matrix(1 0 0 1 0 0) " stroke-linecap="round" />
  <polygon points="220.4,242.28 230.36,252.24 234,248.82 224.03,238.86 " style="stroke: none; stroke-width: 1; stroke-dasharray: none; stroke-linecap: butt; stroke-linejoin: miter; stroke-miterlimit: 10; fill: #FFB655; fill-rule: nonzero; opacity: 1;" transform="  matrix(1 0 0 1 0 0) "/>
  <polygon points="236.48,227.18 246.44,237.14 250.08,233.72 240.12,223.76 " style="stroke: none; stroke-width: 1; stroke-dasharray: none; stroke-linecap: butt; stroke-linejoin: miter; stroke-miterlimit: 10; fill: #FFB655; fill-rule: nonzero; opacity: 1;" transform="  matrix(1 0 0 1 0 0) "/>
  <polygon points="252.56,212.08 262.52,222.04 266.16,218.62 256.2,208.66 " style="stroke: none; stroke-width: 1; stroke-dasharray: none; stroke-linecap: butt; stroke-linejoin: miter; stroke-miterlimit: 10; fill: #FFB655; fill-rule: nonzero; opacity: 1;" transform="  matrix(1 0 0 1 0 0) "/>
  <polygon points="268.64,196.97 278.6,206.94 282.25,203.52 272.28,193.55 " style="stroke: none; stroke-width: 1; stroke-dasharray: none; stroke-linecap: butt; stroke-linejoin: miter; stroke-miterlimit: 10; fill: #FFB655; fill-rule: nonzero; opacity: 1;" transform="  matrix(1 0 0 1 0 0) "/>
  <polygon points="284.72,181.87 294.69,191.83 298.33,188.41 288.37,178.45 " style="stroke: none; stroke-width: 1; stroke-dasharray: none; stroke-linecap: butt; stroke-linejoin: miter; stroke-miterlimit: 10; fill: #FFB655; fill-rule: nonzero; opacity: 1;" transform="  matrix(1 0 0 1 0 0) "/>
  <polygon points="300.81,166.77 310.77,176.73 314.41,173.31 304.45,163.35 " style="stroke: none; stroke-width: 1; stroke-dasharray: none; stroke-linecap: butt; stroke-linejoin: miter; stroke-miterlimit: 10; fill: #FFB655; fill-rule: nonzero; opacity: 1;" transform="  matrix(1 0 0 1 0 0) "/>
  <polygon points="316.89,151.66 326.85,161.63 330.49,158.21 320.53,148.25 " style="stroke: none; stroke-width: 1; stroke-dasharray: none; stroke-linecap: butt; stroke-linejoin: miter; stroke-miterlimit: 10; fill: #FFB655; fill-rule: nonzero; opacity: 1;" transform="  matrix(1 0 0 1 0 0) "/>
  <polygon points="332.97,136.56 342.93,146.52 346.57,143.1 336.61,133.14 " style="stroke: none; stroke-width: 1; stroke-dasharray: none; stroke-linecap: butt; stroke-linejoin: miter; stroke-miterlimit: 10; fill: #FFB655; fill-rule: nonzero; opacity: 1;" transform="  matrix(1 0 0 1 0 0) "/>
  <polygon points="352.7,118.04 349.05,121.46 359.02,131.42 362.66,128 " style="stroke: none; stroke-width: 1; stroke-dasharray: none; stroke-linecap: butt; stroke-linejoin: miter; stroke-miterlimit: 10; fill: #FFB655; fill-rule: nonzero; opacity: 1;" transform="  matrix(1 0 0 1 0 0) "/>
  <path d="M 501.39 45.225 l -0.002 -0.006 c -0.156 -0.403 -0.364 -0.785 -0.622 -1.138 c -0.701 -0.958 -1.471 -1.858 -2.287 -2.675 c -11.406 -11.406 -28.824 -4.502 -29.561 -4.202 l -94.016 38.303 c -1.981 0.808 -3.22 2.795 -3.071 4.929 l 0.894 12.802 l -6.877 6.877 c -1.933 1.933 -1.933 5.068 0 7.001 l 19.252 19.252 c 0.005 0.005 0.01 0.01 0.014 0.013 c 1.933 1.933 5.068 1.933 7.001 0 c 0.117 -0.117 0.228 -0.239 0.331 -0.365 l 7.417 -7.555 c 30.584 11.467 48.095 -5.044 49.017 -5.827 c 3.877 -3.288 5.564 -6.976 5.822 -7.479 c 14.159 -27.694 20.32 -27.086 22.492 -27.428 c 0.773 -0.122 1.788 -0.224 2.689 0.965 c 2.805 3.701 5.721 4.751 8.362 2.538 C 507.679 64.944 504.047 50.79 501.39 45.225 z" style="stroke: none; stroke-width: 1; stroke-dasharray: none; stroke-linecap: butt; stroke-linejoin: miter; stroke-miterlimit: 10; fill: #c2c2c2; fill-rule: nonzero; opacity: 1;" transform=" matrix(1 0 0 1 0 0) " stroke-linecap="round" />
  <path d="M 376.992 113.053 l 6.877 -6.877 l -0.894 -12.802 c -0.149 -2.134 1.09 -4.121 3.071 -4.929 l 94.016 -38.303 c 0.604 -0.246 12.39 -4.913 22.905 -0.335 c -0.421 -1.863 -1.019 -3.414 -1.576 -4.581 l -0.002 -0.006 c -0.156 -0.403 -0.364 -0.785 -0.622 -1.138 c -0.701 -0.958 -1.471 -1.858 -2.287 -2.675 c -11.406 -11.406 -28.824 -4.502 -29.562 -4.202 l -94.016 38.303 c -1.981 0.808 -3.22 2.795 -3.071 4.929 l 0.894 12.802 l -6.877 6.877 c -1.933 1.933 -1.933 5.068 0 7.001 l 9.721 9.722 C 375.491 115.478 375.953 114.092 376.992 113.053 z" style="stroke: none; stroke-width: 1; stroke-dasharray: none; stroke-linecap: butt; stroke-linejoin: miter; stroke-miterlimit: 10; fill: #FFA733; fill-rule: nonzero; opacity: 1;" transform=" matrix(1 0 0 1 0 0) " stroke-linecap="round" />
  <path d="M 506.891 39.598 c -0.928 -1.268 -12.308 -20.182 -40.839 -9.424 l -7.762 3.162 c 0.796 -1.616 1.254 -3.427 1.254 -5.35 c 0 -6.708 -5.438 -12.146 -12.146 -12.146 c -6.708 0 -12.146 5.438 -12.146 12.146 c 0 5.285 3.381 9.769 8.094 11.439 l -16.409 6.685 l -0.077 -0.204 c 1.085 -1.818 1.719 -3.935 1.719 -6.206 c 0 -6.708 -5.438 -12.146 -12.146 -12.146 c -6.708 0 -12.146 5.438 -12.146 12.146 c 0 5.385 3.508 9.945 8.36 11.537 l 0.226 0.604 l -15.545 6.334 l -0.095 -0.253 c 1.084 -1.818 1.719 -3.935 1.719 -6.205 c 0 -6.708 -5.438 -12.146 -12.146 -12.146 c -6.708 0 -12.146 5.438 -12.146 12.146 c 0 5.385 3.508 9.944 8.36 11.537 l 0.244 0.652 l -11.224 4.573 c -5.029 2.05 -8.155 7.067 -7.778 12.486 l 0.653 9.353 l -4.431 4.43 c -2.369 2.368 -3.674 5.518 -3.674 8.869 c 0 0.053 0.007 0.104 0.008 0.157 l -62.784 58.96 c -3.057 2.869 -3.207 7.674 -0.337 10.73 c 1.494 1.591 7.113 3.461 10.729 0.337 l 60.53 -56.843 l 10.363 10.362 L 220.383 291.846 l -20.176 -20.176 l 73.639 -69.155 c 3.057 -2.87 3.207 -7.674 0.337 -10.73 c -2.868 -3.056 -7.673 -3.207 -10.729 -0.337 c 0 0 -41.091 38.28 -42.097 38.897 c -0.18 -0.934 -6.031 -19.894 16.014 -44.168 c 11.216 -11.044 11.517 -29.153 0.602 -40.56 c -5.346 -5.591 -25.936 -15.122 -40.859 -0.904 c -3.36 3.201 -33.521 32.578 -59.853 74.824 c -0.216 0.341 -21.81 34.176 -50.286 37.639 c -0.234 0.029 -25.001 4.051 -43.486 17.866 C 13.96 297.11 -2.206 333.554 0.243 372.527 c 0.253 4.022 3.594 7.115 7.57 7.115 c 0.16 0 0.321 -0.005 0.484 -0.015 c 4.184 -0.263 7.362 -3.868 7.1 -8.052 c -2.127 -33.841 11.773 -65.382 37.183 -84.372 c 14.49 -10.831 34.69 -14.665 36.457 -14.984 c 35.469 -4.449 60.049 -42.966 61.096 -44.631 c 25.799 -41.392 56.197 -70.681 57.478 -71.906 c 2.652 -2.536 11.89 -6.968 19.392 0.429 c 9.354 9.223 -0.734 19.695 -0.876 19.859 c -0.848 0.966 -20.734 23.908 -20.231 51.224 c -0.033 2.12 0.181 9.399 4.175 14.388 l -22.216 20.863 c -0.059 0.055 -0.114 0.109 -0.171 0.166 c -4.482 4.481 -5.946 12.059 0.883 18.89 l 21.98 21.98 c 3.028 3.027 6.676 4.558 10.214 4.558 c 3.159 0 6.231 -1.221 8.695 -3.684 c 0.055 -0.054 0.106 -0.108 0.159 -0.164 l 18.528 -19.674 c 1.562 4.229 4.968 9.314 12.35 12.972 c 28.861 14.301 46.389 3.052 47.038 2.619 c 3.29 -2.123 7.554 -1.704 10.376 1.025 c 1.604 1.547 2.509 3.629 2.547 5.864 c 0.038 2.247 -0.8 4.374 -2.362 5.989 c -15.966 16.499 -44.994 33.398 -65.209 42.116 c -29.844 12.871 -36.69 47.159 -36.966 48.613 c -0.016 0.08 -0.029 0.159 -0.041 0.239 c -3.962 25.15 -16.907 46.705 -36.452 60.697 c -34.428 24.646 -83.977 20.806 -120.49 -9.341 c -3.234 -2.67 -8.019 -2.214 -10.687 1.021 c -2.67 3.233 -2.212 8.017 1.02 10.687 c 20.01 16.521 44.555 26.733 69.112 28.755 c 3.156 0.26 6.289 0.39 9.395 0.39 c 22.109 0 42.86 -6.547 60.488 -19.167 c 22.832 -16.346 37.95 -41.381 42.582 -70.507 c 0.372 -1.749 6.332 -28.077 28.051 -37.445 c 21.558 -9.297 52.691 -27.501 70.108 -45.499 c 4.385 -4.533 6.741 -10.502 6.632 -16.808 c -0.108 -6.294 -2.662 -12.165 -7.18 -16.521 c -7.898 -7.643 -19.864 -8.83 -29.193 -2.836 l 0.086 -0.056 c -0.463 0.28 -11.585 6.736 -32.113 -3.437 c -3.805 -1.886 -4.7 -3.884 -5.041 -5.226 c -1.125 -4.411 2.041 -10.536 3.517 -12.797 l 122.831 -130.44 c 0.025 0 0.051 0.004 0.075 0.004 c 3.35 0 6.499 -1.305 8.869 -3.673 c 0.196 -0.196 4.46 -4.572 4.46 -4.572 c 40.01 13.52 57.179 -13.846 59.517 -18.567 c 8.019 -15.683 12.862 -20.865 14.893 -22.519 c 3.371 3.137 6.664 3.88 9.029 3.88 c 0 0 0 0 0.001 0 c 2.779 0 5.518 -0.939 7.739 -2.924 C 524.44 59.056 507.478 40.403 506.891 39.598 z M 485.488 73.558 c -1.945 -2.256 -17.631 -12.576 -37.541 28.135 l -0.108 0.217 c -1.169 2.361 -13.878 19.222 -45.311 9.445 c -2.866 -0.892 -5.979 -0.353 -8.082 1.79 l -5.623 5.729 c -0.205 -0.057 -15.277 -14.796 -15.277 -14.796 c -0.047 -0.251 4.547 -5.472 4.547 -5.472 c 1.553 -1.554 2.357 -3.704 2.204 -5.896 l -0.76 -10.895 l 9.049 -3.687 l 5.942 15.872 c 2.387 5.942 8.894 4.776 9.771 4.448 c 3.926 -1.47 5.918 -5.844 4.448 -9.77 l -6.094 -16.28 l 15.545 -6.334 l 5.96 15.919 c 2.614 6.151 8.893 4.776 9.77 4.448 c 3.926 -1.47 5.918 -5.844 4.447 -9.77 l -6.112 -16.327 l 16.608 -6.767 l 6.253 16.702 c 3.024 6.393 8.894 4.776 9.771 4.448 c 3.926 -1.47 5.918 -5.844 4.448 -9.77 l -6.406 -17.111 c 23.718 -11.891 31.58 0.605 31.607 0.664 C 496.667 52.953 498.138 61.949 485.488 73.558 z" style="stroke: none; stroke-width: 1; stroke-dasharray: none; stroke-linecap: butt; stroke-linejoin: miter; stroke-miterlimit: 10; fill: #000000; fill-rule: nonzero; opacity: 1;" transform=" matrix(1 0 0 1 0 0) " stroke-linecap="round" />
  <path d="M 22.626 404.733 c -1.491 -3.92 -5.875 -5.885 -9.793 -4.399 c -3.919 1.49 -5.887 5.874 -4.399 9.793 c 4.128 10.86 9.797 21.204 16.627 30.901 c 3.277 4.654 9.253 2.711 10.592 1.753 c 3.408 -2.44 4.194 -7.182 1.753 -10.591 C 31.262 423.61 26.29 414.372 22.626 404.733 z" style="stroke: none; stroke-width: 1; stroke-dasharray: none; stroke-linecap: butt; stroke-linejoin: miter; stroke-miterlimit: 10; fill: #000000; fill-rule: nonzero; opacity: 1;" transform=" matrix(1 0 0 1 0 0) " stroke-linecap="round" />
</g>
  <g transform="translate(263.34 162.97)">
   <text font-family="Top Secret" font-size="40" font-weight="normal" style="stroke: none; stroke-width: 1; stroke-dasharray: none; stroke-linecap: butt; stroke-linejoin: miter; stroke-miterlimit: 10; fill: #858585; fill-rule: nonzero; opacity: 1;" ><tspan x="-120.74" y="8.98" style="stroke: none; stroke-width: 0; stroke-dasharray: none; stroke-linecap: butt; stroke-linejoin: miter; stroke-miterlimit: 4; fill: #858585; fill-rule: ; opacity: 1;">M</tspan><tspan x="-90.25" y="8.98" style="stroke: none; stroke-width: 0; stroke-dasharray: none; stroke-linecap: butt; stroke-linejoin: miter; stroke-miterlimit: 4; fill: #858585; fill-rule: ; opacity: 1;">u</tspan><tspan x="-63.91" y="8.98" style="stroke: none; stroke-width: 0; stroke-dasharray: none; stroke-linecap: butt; stroke-linejoin: miter; stroke-miterlimit: 4; fill: #858585; fill-rule: ; opacity: 1;">s</tspan><tspan x="-42.17" y="8.98" style="stroke: none; stroke-width: 0; stroke-dasharray: none; stroke-linecap: butt; stroke-linejoin: miter; stroke-miterlimit: 4; fill: #858585; fill-rule: ; opacity: 1;">i</tspan><tspan x="-27.29" y="8.98" style="stroke: none; stroke-width: 0; stroke-dasharray: none; stroke-linecap: butt; stroke-linejoin: miter; stroke-miterlimit: 4; fill: #858585; fill-rule: ; opacity: 1;">c</tspan><tspan x="-2.81" y="8.98" style="stroke: none; stroke-width: 0; stroke-dasharray: none; stroke-linecap: butt; stroke-linejoin: miter; stroke-miterlimit: 4; fill: #858585; fill-rule: ; opacity: 1;"> </tspan><tspan x="16.74" y="8.98" style="stroke: none; stroke-width: 0; stroke-dasharray: none; stroke-linecap: butt; stroke-linejoin: miter; stroke-miterlimit: 4; fill: #858585; fill-rule: ; opacity: 1;">s</tspan><tspan x="38.48" y="8.98" style="stroke: none; stroke-width: 0; stroke-dasharray: none; stroke-linecap: butt; stroke-linejoin: miter; stroke-miterlimit: 4; fill: #858585; fill-rule: ; opacity: 1;">h</tspan><tspan x="67.68" y="8.98" style="stroke: none; stroke-width: 0; stroke-dasharray: none; stroke-linecap: butt; stroke-linejoin: miter; stroke-miterlimit: 4; fill: #858585; fill-rule: ; opacity: 1;">o</tspan><tspan x="94.39" y="8.98" style="stroke: none; stroke-width: 0; stroke-dasharray: none; stroke-linecap: butt; stroke-linejoin: miter; stroke-miterlimit: 4; fill: #858585; fill-rule: ; opacity: 1;">p</tspan></text>
 </g>
  <g transform="translate(217.26 122.97) scale(1.04 1)">
   <text font-family="Lovelo" font-size="40" font-weight="bold" style="stroke: none; stroke-width: 1; stroke-dasharray: none; stroke-linecap: butt; stroke-linejoin: miter; stroke-miterlimit: 10; fill: #d60000; fill-rule: nonzero; opacity: 1;" ><tspan x="-71.77" y="8.98" style="stroke: none; stroke-width: 0; stroke-dasharray: none; stroke-linecap: butt; stroke-linejoin: miter; stroke-miterlimit: 4; fill: #d60000; fill-rule: ; opacity: 1;">T</tspan><tspan x="-49.89" y="8.98" style="stroke: none; stroke-width: 0; stroke-dasharray: none; stroke-linecap: butt; stroke-linejoin: miter; stroke-miterlimit: 4; fill: #d60000; fill-rule: ; opacity: 1;">z</tspan><tspan x="-28.51" y="8.98" style="stroke: none; stroke-width: 0; stroke-dasharray: none; stroke-linecap: butt; stroke-linejoin: miter; stroke-miterlimit: 4; fill: #d60000; fill-rule: ; opacity: 1;">i</tspan><tspan x="-16.36" y="8.98" style="stroke: none; stroke-width: 0; stroke-dasharray: none; stroke-linecap: butt; stroke-linejoin: miter; stroke-miterlimit: 4; fill: #d60000; fill-rule: ; opacity: 1;">o</tspan><tspan x="17.51" y="8.98" style="stroke: none; stroke-width: 0; stroke-dasharray: none; stroke-linecap: butt; stroke-linejoin: miter; stroke-miterlimit: 4; fill: #d60000; fill-rule: ; opacity: 1;">n</tspan><tspan x="45.65" y="8.98" style="stroke: none; stroke-width: 0; stroke-dasharray: none; stroke-linecap: butt; stroke-linejoin: miter; stroke-miterlimit: 4; fill: #d60000; fill-rule: ; opacity: 1;">a</tspan></text>
 </g>
<g style="stroke: none; stroke-width: 1; stroke-dasharray: none; stroke-linecap: butt; stroke-linejoin: miter; stroke-miterlimit: 10; fill: none; fill-rule: nonzero; opacity: 1;" transform="translate(128.01 171.15000000000003) rotate(0.88) scale(1.18 1.17)" >
  <path d="M 40.408 11.097 c -6.663 -3.17 -8.194 -9.087 -8.414 -10.114 c -0.003 -0.184 -0.067 -0.347 -0.157 -0.494 c -0.005 -0.008 -0.011 -0.016 -0.016 -0.024 c -0.058 -0.088 -0.123 -0.166 -0.205 -0.232 c -0.029 -0.025 -0.062 -0.042 -0.093 -0.063 c -0.065 -0.041 -0.129 -0.079 -0.203 -0.105 c -0.063 -0.023 -0.13 -0.03 -0.198 -0.04 C 31.08 0.019 31.042 0 30.998 0 c -0.016 0 -0.03 0.008 -0.046 0.009 c -0.02 0.001 -0.038 -0.007 -0.058 -0.005 c -0.078 0.007 -0.147 0.038 -0.219 0.061 c -0.026 0.009 -0.054 0.011 -0.079 0.022 c -0.362 0.152 -0.617 0.5 -0.617 0.913 v 16 c 0 0.034 0.016 0.063 0.02 0.097 V 40 h -8 c -5.514 0 -10 4.486 -10 10 s 4.486 10 10 10 s 10 -4.486 10 -10 v -9 V 18.067 c 7.414 0.685 14.148 8.497 14.218 8.579 C 46.409 26.875 46.691 27 46.979 27 c 0.104 0 0.208 -0.017 0.311 -0.05 c 0.386 -0.126 0.657 -0.473 0.687 -0.878 C 48.009 25.624 48.681 15.033 40.408 11.097 z" style="stroke: none; stroke-width: 1; stroke-dasharray: none; stroke-linecap: butt; stroke-linejoin: miter; stroke-miterlimit: 10; fill: #050503; fill-rule: nonzero; opacity: 1;" transform=" matrix(1 0 0 1 0 0) " stroke-linecap="round" />
</g>
  <g transform="translate(259.38 211.01)">
   <text font-family="ADAMCG PRO" font-size="40" font-weight="normal" style="stroke: none; stroke-width: 1; stroke-dasharray: none; stroke-linecap: butt; stroke-linejoin: miter; stroke-miterlimit: 10; fill: #000000; fill-rule: nonzero; opacity: 1;" ><tspan x="-76.15" y="8.98" style="stroke: none; stroke-width: 0; stroke-dasharray: none; stroke-linecap: butt; stroke-linejoin: miter; stroke-miterlimit: 4; fill: #000000; fill-rule: ; opacity: 1;">u</tspan><tspan x="-48.52" y="8.98" style="stroke: none; stroke-width: 0; stroke-dasharray: none; stroke-linecap: butt; stroke-linejoin: miter; stroke-miterlimit: 4; fill: #000000; fill-rule: ; opacity: 1;">c</tspan><tspan x="-21.45" y="8.98" style="stroke: none; stroke-width: 0; stroke-dasharray: none; stroke-linecap: butt; stroke-linejoin: miter; stroke-miterlimit: 4; fill: #000000; fill-rule: ; opacity: 1;">t</tspan><tspan x="1.91" y="8.98" style="stroke: none; stroke-width: 0; stroke-dasharray: none; stroke-linecap: butt; stroke-linejoin: miter; stroke-miterlimit: 4; fill: #000000; fill-rule: ; opacity: 1;">i</tspan><tspan x="12.7" y="8.98" style="stroke: none; stroke-width: 0; stroke-dasharray: none; stroke-linecap: butt; stroke-linejoin: miter; stroke-miterlimit: 4; fill: #000000; fill-rule: ; opacity: 1;">o</tspan><tspan x="46.64" y="8.98" style="stroke: none; stroke-width: 0; stroke-dasharray: none; stroke-linecap: butt; stroke-linejoin: miter; stroke-miterlimit: 4; fill: #000000; fill-rule: ; opacity: 1;">n</tspan></text>
 </g>
</svg>