<?xml version="1.0"?>
<svg xmlns:rdf="http://www.w3.org/1999/02/22-rdf-syntax-ns#" xmlns="http://www.w3.org/2000/svg" xmlns:cc="http://web.resource.org/cc/" xmlns:dc="http://purl.org/dc/elements/1.1/" xmlns:svg="http://www.w3.org/2000/svg" id="svg10313" viewBox="0 0 233.1 800.89" version="1.0">
  <g id="layer1" transform="translate(-126.21 -117.18)">
    <g id="g12915" transform="matrix(2.411 0 0 2.411 -1030.5 -516.05)">
      <path id="path10963" d="m519.34 474.81c-2.35 1.77-4.71 1.49-7.07 0.25-3.59-5.23-2.45-12.69-4.29-18.94-2.26-7.7-8.49-7.34-12-4.17-9.02 8.17-5.18 19.72-5.3 29.68 0.96 12.64 10.5 21.39 3.54 34.59-4.76 9.02-11.4 18.75-13.45 28.58-2.68 16.44 5.4 31.98 19.26 40.37 13.39 6.01 28.24 8.29 45.7 9.09 17.15 0.78 27.08-5.55 29.55-17.17 1.35-6.32 0.93-12.9-4.04-22.23-2.98-5.59-7.36-10.08-9.34-16.92-1.03-3.53-3.2-4.2 1.77-16.16 5.11-12.33 5.93-22.86 5.05-33.34-0.47-5.49-3.8-10.63-9.6-12.87-1.86-0.73-4.19 0.8-4.55 2.52-1.2 5.82-2.19 11.34-7.07 14.4-3.84 1.79-6.84 0.63-9.34-2.28l-18.82-15.4z" fill-rule="evenodd" stroke="#000" stroke-width="1px" fill="#060c08"/>
      <path id="path11938" d="m515.3 572.92c0.17-1.21-0.67-2.83 2.66-2.78h17.29c2.13-0.14 3.33 0.53 3.1 3.09v8.65c0.14 3.07-2.08 1.93-3.82 2.21h-15.31c-3.02 0.06-3.75-0.9-3.76-2.17l-0.16-9z" fill-rule="evenodd" stroke="#000" stroke-width="1px" fill="#7d827f"/>
      <path id="path11936" d="m541.19 547.41c4.28 3.4 9.27 9.62 13.76 16.04 2.76 4.47 5.83 8.23 9.6 10.35 4.01 1.48 5.42-0.51 6.44-3.03 0.25-5.02-2.33-9.1-3.92-13.51-3.81-5.77-7.17-11.69-9.97-17.8-14.74-5.67-13.25 3.76-15.91 7.95z" fill-rule="evenodd" stroke="#000" stroke-width="1px" fill="#2c3022"/>
      <path id="path10965" d="m560.13 482.89c-4.25 2.36-2.9 14.39-10.48 16.79-3.8 1.2-8.54 0.5-11.36-2.14-8.38-4.89-16.46-19.04-25.13-14.65-4.86 2.46 3.22 14.13 1.77 20.58-2.08 9.25-9.31 17.68-9.73 26.52-0.25 5.48 2.08 10.78 10.74 11.74 6.83 0.76 10.72 0.61 24.37 5.81l16.41-10.48c-0.76-4.38 1.02-8.76 2.15-13.13 3.6-7.87 5.66-15.75 6.56-23.62-0.06-7.42-1.19-19.71-5.3-17.42z" fill-rule="evenodd" stroke="#fcfcfc" stroke-width=".2" fill="#3e060f"/>
      <rect id="rect12911" fill-rule="evenodd" rx=".75761" ry="3.1567" height="6.3135" width="23.991" stroke="#000" stroke-linecap="round" y="551.96" x="515.3" stroke-width=".2" fill="#08110e"/>
      <rect id="rect11940" fill-rule="evenodd" rx=".75761" ry="3.1567" height="6.3135" width="23.991" stroke="#000" stroke-linecap="round" y="527.21" x="515.3" stroke-width=".2" fill="#08110e"/>
      <path id="path10935" d="m514.91 315.14l-0.41 0.65s-4.81 1.89-6.06-0.25c-1.25-2.13-0.69-7.33 1.06-8.29s5.94 4.44 5.94 4.44l0.23 1.13 2.54 0.86-0.34 2.63-2.96-1.17z" fill-rule="evenodd" stroke="#000" stroke-width="1.0938px" fill="#999"/>
      <path id="path10933" d="m518.44 301.38l-0.4 0.64s-4.81 1.89-6.06-0.24-0.7-7.33 1.05-8.29c1.75-0.97 5.95 4.43 5.95 4.43l0.23 1.14 2.53 0.85-0.33 2.63-2.97-1.16z" fill-rule="evenodd" stroke="#000" stroke-width="1.0938px" fill="#999"/>
      <path id="path10931" d="m521.72 287.24l-0.4 0.64s-4.81 1.89-6.06-0.24c-1.25-2.14-0.69-7.33 1.06-8.3 1.75-0.96 5.94 4.44 5.94 4.44l0.23 1.13 2.53 0.86-0.33 2.63-2.97-1.16z" fill-rule="evenodd" stroke="#000" stroke-width="1.0938px" fill="#999"/>
      <path id="path10062" d="m525.05 274.87l-0.49 0.58s-5.02 1.22-5.97-1.06c-0.95-2.29 0.31-7.36 2.17-8.08 1.87-0.71 5.29 5.21 5.29 5.21l0.07 1.15 2.4 1.2-0.69 2.55-2.78-1.55z" fill-rule="evenodd" stroke="#000" stroke-width="1.0938px" fill="#999"/>
      <path id="path10961" d="m525.53 328.71c-3.34-2.3-8.87-3.32-8.96-7.82-0.28-13.7 11.11-47.23 11.11-47.23 0.46-5.92 3.33-11.57 10.98-10.35 10.44 1.66 9.29 9.47 7.45 15.28-0.83 2.64-2.66 5.02-6.06 5.8 0.32 4.09 0.56 8.03 1.64 12.25 1.9 7.41 4.04 17.93 4.04 17.93-4.57 3.3-8.58 7.07-8.83 14.02l-11.37 0.12z" fill-rule="evenodd" stroke="#000" stroke-width="1px" fill="#a5844f"/>
      <path id="path10068" d="m524.72 330.58l-5.51 167.27 18.32-0.09 0.24-166.84-13.05-0.34z" fill-rule="evenodd" stroke="#000" stroke-width=".84006px" fill="#c87137"/>
      <rect id="rect10070" ry=".14565" fill-rule="evenodd" transform="matrix(.99999 -.0048275 -.00060731 1 0 0)" height=".66941" width="18.389" stroke="#000" y="497.31" x="519.66" stroke-width=".19747" fill="#ccc"/>
      <rect id="rect10080" ry=".14565" fill-rule="evenodd" transform="matrix(.99999 -.0048275 -.00060731 1 0 0)" height=".66941" width="18.389" stroke="#000" y="494.01" x="519.68" stroke-width=".19747" fill="#ccc"/>
      <rect id="rect10082" ry=".14596" fill-rule="evenodd" transform="matrix(.99999 -.0048275 -.00060731 1 0 0)" height=".67085" width="18.109" stroke="#000" y="490.13" x="519.75" stroke-width=".19617" fill="#ccc"/>
      <rect id="rect10084" ry=".14565" fill-rule="evenodd" transform="matrix(.99999 -.0048275 -.00060731 1 0 0)" height=".66941" width="18.389" stroke="#000" y="486.34" x="519.59" stroke-width=".19747" fill="#ccc"/>
      <rect id="rect10086" ry=".14565" fill-rule="evenodd" transform="matrix(.99999 -.0048275 -.00060731 1 0 0)" height=".66941" width="18.389" stroke="#000" y="482.17" x="519.71" stroke-width=".19747" fill="#ccc"/>
      <rect id="rect10088" ry=".14596" fill-rule="evenodd" transform="matrix(.99999 -.0048275 -.00060731 1 0 0)" height=".67085" width="18.109" stroke="#000" y="477.16" x="520.01" stroke-width=".19617" fill="#ccc"/>
      <rect id="rect10090" ry=".14612" fill-rule="evenodd" transform="matrix(.99999 -.0048275 -.00060731 1 0 0)" height=".67158" width="17.969" stroke="#000" y="471.21" x="520.45" stroke-width=".19552" fill="#ccc"/>
      <rect id="rect10092" ry=".14581" fill-rule="evenodd" transform="matrix(.99999 -.0048275 -.00060731 1 0 0)" height=".67013" width="18.249" stroke="#000" y="466.32" x="520.24" stroke-width=".19682" fill="#ccc"/>
      <rect id="rect10094" ry=".14628" fill-rule="evenodd" transform="matrix(.99999 -.0048275 -.00060731 1 0 0)" height=".67231" width="17.83" stroke="#000" y="460.44" x="520.5" stroke-width=".19486" fill="#ccc"/>
      <rect id="rect10096" ry=".14628" fill-rule="evenodd" transform="matrix(.99999 -.0048275 -.00060731 1 0 0)" height=".67231" width="17.83" stroke="#000" y="453.79" x="520.66" stroke-width=".19486" fill="#ccc"/>
      <rect id="rect10098" ry=".1466" fill-rule="evenodd" transform="matrix(.99999 -.0048275 -.00060731 1 0 0)" height=".67378" width="17.55" stroke="#000" y="447.48" x="520.8" stroke-width=".19354" fill="#ccc"/>
      <rect id="rect10100" ry=".14758" fill-rule="evenodd" transform="matrix(.99999 -.0048275 -.00060731 1 0 0)" height=".67829" width="16.71" stroke="#000" y="439.99" x="521.22" stroke-width=".18948" fill="#ccc"/>
      <rect id="rect10102" ry=".14742" fill-rule="evenodd" transform="matrix(.99999 -.0048275 -.00060731 1 0 0)" height=".67752" width="16.85" stroke="#000" y="433.45" x="521.36" stroke-width=".19017" fill="#ccc"/>
      <rect id="rect10104" ry=".14709" fill-rule="evenodd" transform="matrix(.99999 -.0048275 -.00060731 1 0 0)" height=".67601" width="17.13" stroke="#000" y="425.32" x="521.34" stroke-width=".19153" fill="#ccc"/>
      <rect id="rect10106" ry=".14964" fill-rule="evenodd" transform="matrix(.99999 -.0048275 -.00060731 1 0 0)" height=".68776" width="15.031" stroke="#000" y="343.92" x="523.79" stroke-width=".18096" fill="#ccc"/>
      <rect id="rect10108" ry=".15187" fill-rule="evenodd" transform="matrix(.99999 -.0048275 -.00060731 1 0 0)" height="2.443" width="13.808" stroke="#000" y="331.49" x="524.76" stroke-width=".42618" fill="#ccc"/>
      <rect id="rect10110" ry=".14859" fill-rule="evenodd" transform="matrix(.99999 -.0048275 -.00060731 1 0 0)" height=".68294" width="15.871" stroke="#000" y="367.54" x="522.86" stroke-width=".18529" fill="#ccc"/>
      <rect id="rect10112" ry=".14946" fill-rule="evenodd" transform="matrix(.99999 -.0048275 -.00060731 1 0 0)" height=".68694" width="15.171" stroke="#000" y="355.9" x="523.28" stroke-width=".18169" fill="#ccc"/>
      <rect id="rect10114" ry=".14894" fill-rule="evenodd" transform="matrix(.99999 -.0048275 -.00060731 1 0 0)" height=".68453" width="15.591" stroke="#000" y="378.65" x="523" stroke-width=".18387" fill="#ccc"/>
      <rect id="rect10116" ry=".14859" fill-rule="evenodd" transform="matrix(.99999 -.0048275 -.00060731 1 0 0)" height=".68294" width="15.871" stroke="#000" y="389.06" x="522.72" stroke-width=".18529" fill="#ccc"/>
      <rect id="rect10118" ry=".14894" fill-rule="evenodd" transform="matrix(.99999 -.0048275 -.00060731 1 0 0)" height=".68453" width="15.591" stroke="#000" y="398.61" x="522.57" stroke-width=".18387" fill="#ccc"/>
      <rect id="rect10120" ry=".14775" fill-rule="evenodd" transform="matrix(.99999 -.0048275 -.00060731 1 0 0)" height=".67905" width="16.57" stroke="#000" y="408.39" x="522.02" stroke-width=".18879" fill="#ccc"/>
      <rect id="rect10122" ry=".14758" fill-rule="evenodd" transform="matrix(.99999 -.0048275 -.00060731 1 0 0)" height=".67829" width="16.71" stroke="#000" y="416.87" x="521.78" stroke-width=".18948" fill="#ccc"/>
      <path id="path10144" d="m524.63 319.69l1.81 9.78-7.15 246.12" stroke="#555" stroke-width=".43832" fill="none"/>
      <path id="path10146" d="m528.67 305.8l0.99 24.47-5.1 244.84" stroke="#555" stroke-width=".43851" fill="none"/>
      <path id="path10148" d="m532.09 293.59l0.61 36.44-2.58 244.36" stroke="#555" stroke-width=".43874" fill="none"/>
      <path id="path10150" d="m535.97 279.57l-0.72 50.69 0.34 244.86" stroke="#555" stroke-width=".43859" fill="none"/>
      <path id="path10158" d="m255.36 205.58a3.3929 3.3929 0 1 1 -6.79 0 3.3929 3.3929 0 1 1 6.79 0z" fill="#b3b3b3" transform="matrix(.79975 -.0032460 -.00060018 .83072 323.18 149.7)"/>
      <path id="path10937" d="m255.36 205.58a3.3929 3.3929 0 1 1 -6.79 0 3.3929 3.3929 0 1 1 6.79 0z" fill="#b3b3b3" transform="matrix(.79975 -.0032460 -.00060018 .83072 326.84 136.07)"/>
      <path id="path10939" d="m255.36 205.58a3.3929 3.3929 0 1 1 -6.79 0 3.3929 3.3929 0 1 1 6.79 0z" fill="#b3b3b3" transform="matrix(.79975 -.0032460 -.00060018 .83072 330.25 122.3)"/>
      <path id="path10941" d="m255.36 205.58a3.3929 3.3929 0 1 1 -6.79 0 3.3929 3.3929 0 1 1 6.79 0z" fill="#b3b3b3" transform="matrix(.79975 -.0032460 -.00060018 .83072 333.28 108.29)"/>
      <rect id="rect12913" ry="1.1607" fill-rule="evenodd" rx=".75761" transform="matrix(.99795 -.063991 .063991 .99795 0 0)" height="1.1607" width="20.446" stroke="#000" stroke-linecap="round" y="607.22" x="478.8" stroke-width=".2" fill="#9fa69e"/>
    </g>
  </g>
  <metadata>
    <rdf:RDF>
      <cc:Work>
        <dc:format>image/svg+xml</dc:format>
        <dc:type rdf:resource="http://purl.org/dc/dcmitype/StillImage"/>
        <cc:license rdf:resource="http://creativecommons.org/licenses/publicdomain/"/>
        <dc:publisher>
          <cc:Agent rdf:about="http://openclipart.org/">
            <dc:title>Openclipart</dc:title>
          </cc:Agent>
        </dc:publisher>
        <dc:title>Fender Jazz Bass</dc:title>
        <dc:date>2008-05-16T15:51:45</dc:date>
        <dc:description>A svg of a Fender Jazz Bass</dc:description>
        <dc:source>http://openclipart.org/detail/16767/fender-jazz-bass-by-piemaster</dc:source>
        <dc:creator>
          <cc:Agent>
            <dc:title>Piemaster</dc:title>
          </cc:Agent>
        </dc:creator>
        <dc:subject>
          <rdf:Bag>
            <rdf:li>bass</rdf:li>
            <rdf:li>cartoon</rdf:li>
            <rdf:li>clip art</rdf:li>
            <rdf:li>clipart</rdf:li>
            <rdf:li>electric</rdf:li>
            <rdf:li>fender</rdf:li>
            <rdf:li>guitar</rdf:li>
            <rdf:li>image</rdf:li>
            <rdf:li>jazz</rdf:li>
            <rdf:li>media</rdf:li>
            <rdf:li>music</rdf:li>
            <rdf:li>musical instrument</rdf:li>
            <rdf:li>png</rdf:li>
            <rdf:li>public domain</rdf:li>
            <rdf:li>svg</rdf:li>
          </rdf:Bag>
        </dc:subject>
      </cc:Work>
      <cc:License rdf:about="http://creativecommons.org/licenses/publicdomain/">
        <cc:permits rdf:resource="http://creativecommons.org/ns#Reproduction"/>
        <cc:permits rdf:resource="http://creativecommons.org/ns#Distribution"/>
        <cc:permits rdf:resource="http://creativecommons.org/ns#DerivativeWorks"/>
      </cc:License>
    </rdf:RDF>
  </metadata>
</svg>
